<?xml version="1.0" encoding="UTF-8"?>
<svg version="1.1" xmlns="http://www.w3.org/2000/svg" width="624" height="624">
<path d="M0 0 C0.78938965 0.00829834 1.5787793 0.01659668 2.39208984 0.02514648 C12.06415295 0.30470313 18.45669982 3.11389109 25.3359375 9.94921875 C27.45021296 11.70803742 28.36899873 12.28385533 31.125 12.4375 C33.69523009 11.62693432 36.12733338 10.7424085 38.625 9.75 C68.92662438 -1.37087468 101.8245886 -0.52454791 132.05859375 10.38671875 C136.01429011 11.81076358 136.01429011 11.81076358 140.125 12.4375 C142.3395047 10.94516779 142.3395047 10.94516779 144.3125 8.75 C152.32663343 1.27276113 159.81182874 -0.17901197 170.51147461 -0.02905273 C180.83816769 0.39361418 187.41573064 3.79339828 194.921875 10.921875 C203.03557689 20.18645659 203.78799741 30.50855001 203.29980469 42.28076172 C202.61164471 50.77127185 197.94340001 56.58641235 192.125 62.4375 C192.53492188 63.53707031 192.94484375 64.63664062 193.3671875 65.76953125 C193.91192092 67.26285217 194.45616526 68.75635156 195 70.25 C195.26941406 70.96865234 195.53882813 71.68730469 195.81640625 72.42773438 C199.59120298 82.87747654 200.5151104 93.06041299 200.5 104.125 C200.49838867 105.35581299 200.49677734 106.58662598 200.49511719 107.85473633 C200.27602446 124.16533045 196.04289353 137.47984703 187.39453125 151.2734375 C185.99054878 153.49539404 185.99054878 153.49539404 185.125 156.4375 C186.28071731 158.65337143 187.48164592 160.7065331 188.8125 162.8125 C195.25887574 173.50555361 198.54200787 184.92726403 198.125 197.4375 C197.795 198.0975 197.465 198.7575 197.125 199.4375 C197.80880737 199.43305878 198.49261475 199.42861755 199.19714355 199.42404175 C206.33518375 199.37968264 213.47318457 199.34958133 220.61132812 199.32763672 C223.27286548 199.31873255 225.93418615 199.30396743 228.59570312 199.28662109 C232.42841302 199.26227279 236.26097668 199.25099379 240.09375 199.2421875 C241.86921204 199.22670364 241.86921204 199.22670364 243.68054199 199.21090698 C253.41047162 199.20959529 261.46255578 199.8698814 268.7578125 207.04296875 C274.04624535 212.8295873 275.42787446 218.24845806 275.3996582 226.06005859 C275.4073246 227.16863472 275.4073246 227.16863472 275.41514587 228.29960632 C275.42897889 230.72846713 275.42808975 233.15704213 275.42578125 235.5859375 C275.4296719 237.28455713 275.43400733 238.98317579 275.43876648 240.68179321 C275.44621536 244.23743853 275.44594728 247.79298453 275.44067383 251.34863281 C275.43488382 255.89013451 275.45180523 260.43122776 275.4750185 264.97266197 C275.489799 268.47983145 275.49062164 271.98690356 275.48750877 275.49409866 C275.48801991 277.16772902 275.49321845 278.84136512 275.50332069 280.51496506 C275.51575076 282.8622921 275.50885469 285.20883646 275.49731445 287.55615234 C275.50495819 288.23797073 275.51260193 288.91978912 275.52047729 289.62226868 C275.44704296 296.42952036 273.43668734 302.60211452 268.875 307.75 C268.33359375 308.38550781 267.7921875 309.02101563 267.234375 309.67578125 C262.07111476 313.98805971 257.02619042 314.81136774 250.44555664 314.77807617 C249.71301666 314.77851425 248.98047668 314.77895233 248.22573853 314.77940369 C245.82859705 314.77733037 243.43217401 314.75406967 241.03515625 314.73046875 C239.36364626 314.72486758 237.69213132 314.72059994 236.02061462 314.71760559 C231.63933512 314.70619778 227.258358 314.67676601 222.87719727 314.64349365 C218.3992929 314.61270476 213.92133927 314.59908147 209.44335938 314.58398438 C200.67041927 314.55189198 191.89778219 314.49915769 183.125 314.4375 C183.125 320.3775 183.125 326.3175 183.125 332.4375 C185.31954834 332.41655273 187.51409668 332.39560547 189.77514648 332.37402344 C197.05131708 332.30754442 204.32750159 332.26348148 211.60389614 332.23025131 C216.01270642 332.20943631 220.42120376 332.18123106 224.82983398 332.13574219 C229.08979909 332.0920657 233.34946445 332.06831717 237.60963631 332.05799103 C239.22944922 332.05063856 240.84924698 332.03628133 242.4689312 332.01457977 C260.98948647 331.77645048 260.98948647 331.77645048 267.95677185 338.10003662 C273.70584134 344.01389795 275.58543489 351.21239773 275.51318359 359.28710938 C275.52106903 360.39612358 275.52106903 360.39612358 275.52911377 361.52754211 C275.54220295 363.94566648 275.53361566 366.36312018 275.5234375 368.78125 C275.52546143 370.47701136 275.52837552 372.17277187 275.53213501 373.86853027 C275.53654335 377.41227555 275.53017558 380.95579305 275.51611328 384.49951172 C275.49902221 389.02528772 275.50887142 393.55052986 275.52683067 398.07628632 C275.53770895 401.57488982 275.53420369 405.07336828 275.5264473 408.57197571 C275.52445645 410.24001632 275.52686505 411.90806856 275.53388596 413.57609558 C275.54156752 415.91366335 275.52980399 418.2503853 275.51318359 420.58789062 C275.51925629 421.26656693 275.52532898 421.94524323 275.53158569 422.64448547 C275.42744399 430.61349538 272.75103912 436.81146088 267.125 442.4375 C261.49026733 446.40080635 256.81424872 447.56350784 250.02532959 447.55775452 C248.1491394 447.55981651 248.1491394 447.55981651 246.23504639 447.56192017 C244.85168433 447.55838126 243.46832252 447.55474646 242.08496094 447.55102539 C240.62626141 447.55074328 239.16756175 447.55090173 237.7088623 447.5514679 C233.75053529 447.55175492 229.79223855 447.54587344 225.83391857 447.53889394 C221.69659262 447.53264469 217.55926598 447.53205535 213.42193604 447.53086853 C205.58805058 447.52775986 197.75417908 447.5195527 189.92029977 447.50951904 C181.00139434 447.49834352 172.08248824 447.49284382 163.16357756 447.48782361 C144.81737552 447.47736972 126.47119261 447.45902998 108.125 447.4375 C108.125 463.9375 108.125 480.4375 108.125 497.4375 C120.16664847 497.39794562 120.16664847 497.39794562 132.20825195 497.34741211 C133.718261 497.3444914 135.22827084 497.3419432 136.73828125 497.33984375 C137.52182983 497.33472778 138.30537842 497.32961182 139.1126709 497.32434082 C142.38075102 497.32381481 145.00178633 497.39642878 148.125 498.4375 C149.79158741 503.43726224 149.35009077 508.65325765 149.36523438 513.88916016 C149.37496626 515.93042352 149.40601631 517.97069043 149.4375 520.01171875 C149.44265625 521.29691406 149.4478125 522.58210937 149.453125 523.90625 C149.4624707 525.08638672 149.47181641 526.26652344 149.48144531 527.48242188 C149.125 530.4375 149.125 530.4375 147.91864872 532.09880352 C145.52648917 533.88420081 144.04133377 533.81227005 141.07017517 533.8117218 C140.0255864 533.81873611 138.98099762 533.82575043 137.90475464 533.83297729 C136.75919098 533.82533356 135.61362732 533.81768982 134.43334961 533.80981445 C132.62334724 533.81529045 132.62334724 533.81529045 130.77677917 533.82087708 C127.4668055 533.8276005 124.15739263 533.82086034 120.84747386 533.80754495 C117.38639828 533.79623664 113.92533739 533.80033741 110.46424866 533.80229187 C104.652793 533.80317493 98.84145398 533.79209112 93.0300293 533.77368164 C86.30610173 533.75250383 79.58234492 533.74900615 72.85839075 533.7552436 C66.39507343 533.76093282 59.93181639 533.75529749 53.46850777 533.74407005 C50.71534679 533.73941919 47.96222261 533.73855229 45.20905876 533.7406559 C41.36839278 533.74288453 37.52789013 533.72844915 33.68725586 533.7121582 C32.53966797 533.71463562 31.39208008 533.71711304 30.2097168 533.71966553 C29.16794785 533.71258072 28.12617889 533.70549591 27.05284119 533.69819641 C25.68982329 533.69511711 25.68982329 533.69511711 24.29926968 533.69197559 C22.125 533.4375 22.125 533.4375 20.125 531.4375 C19.72512878 526.87648002 19.79597608 522.30121761 19.80932617 517.72460938 C19.81248803 515.4461291 19.78902483 513.16894479 19.76367188 510.890625 C19.76139912 509.44791831 19.76069527 508.00520812 19.76171875 506.5625 C19.75873779 505.24507812 19.75575684 503.92765625 19.75268555 502.5703125 C19.87554932 501.53648437 19.99841309 500.50265625 20.125 499.4375 C23.96130705 496.87996196 27.06985281 497.1841836 31.51171875 497.2421875 C32.23605103 497.24420166 32.9603833 497.24621582 33.70666504 497.24829102 C36.40867458 497.25874366 39.11059374 497.28666631 41.8125 497.3125 C47.855625 497.35375 53.89875 497.395 60.125 497.4375 C60.125 480.9375 60.125 464.4375 60.125 447.4375 C55.68877197 447.45844727 51.25254395 447.47939453 46.68188477 447.50097656 C32.02159478 447.56726734 17.36129888 447.61164774 2.70089817 447.64474869 C-6.18735342 447.66535151 -15.07546277 447.69342837 -23.96362305 447.73925781 C-31.71285842 447.77919556 -39.46199074 447.80494939 -47.21132618 447.81385398 C-51.31249157 447.81905702 -55.41336222 447.83123812 -59.51443291 447.86042023 C-63.37960343 447.88769924 -67.24435958 447.89592002 -71.10961723 447.88993073 C-72.5232977 447.89102541 -73.93699293 447.89890498 -75.35058975 447.9143219 C-84.47563453 448.00890615 -92.06483328 447.54902815 -99.21484375 441.4375 C-99.74207031 440.7775 -100.26929688 440.1175 -100.8125 439.4375 C-101.35777344 438.7775 -101.90304688 438.1175 -102.46484375 437.4375 C-106.82940692 431.24731623 -106.99664689 424.7999925 -107.02026367 417.35986328 C-107.02362228 416.69054779 -107.0269809 416.0212323 -107.03044128 415.33163452 C-107.03986458 413.14034113 -107.04188994 410.94912484 -107.04296875 408.7578125 C-107.04618706 407.21996022 -107.04955155 405.68210825 -107.05305481 404.14425659 C-107.05902434 400.92835786 -107.06089693 397.71248591 -107.06030273 394.49658203 C-107.06020118 390.39584896 -107.07385668 386.29528927 -107.09107494 382.19459724 C-107.1022463 379.02024562 -107.10422038 375.84593527 -107.10369301 372.67156601 C-107.10486526 371.16064735 -107.10924417 369.64972735 -107.11702538 368.13882828 C-107.2167514 346.77772677 -107.2167514 346.77772677 -100.80014038 339.3691864 C-94.54691478 333.09469807 -87.27946125 331.9065146 -78.73899269 331.85709858 C-76.39583846 331.87140658 -74.05379334 331.90984804 -71.7109375 331.94921875 C-70.0661426 331.95856168 -68.42133365 331.96567079 -66.77651978 331.97065735 C-62.47886722 331.98961107 -58.18207986 332.03860853 -53.88476562 332.09417725 C-49.48709817 332.14562327 -45.08928886 332.16822512 -40.69140625 332.19335938 C-32.08549913 332.24674144 -23.48045737 332.33457906 -14.875 332.4375 C-14.875 326.4975 -14.875 320.5575 -14.875 314.4375 C-17.10507813 314.45844727 -19.33515625 314.47939453 -21.6328125 314.50097656 C-29.02075036 314.56740882 -36.40870179 314.6115 -43.79685974 314.64474869 C-48.27407702 314.6655776 -52.75098693 314.69380874 -57.22802734 314.73925781 C-61.55282592 314.78288405 -65.87732981 314.80667239 -70.20233154 314.81700897 C-71.84808996 314.82437036 -73.49383319 314.83874534 -75.13946533 314.86042023 C-92.49531118 315.07981835 -92.49531118 315.07981835 -99.8984375 308.69140625 C-105.73965574 301.38144239 -106.99068955 294.80752145 -107.02026367 285.47338867 C-107.02362228 284.80421921 -107.0269809 284.13504974 -107.03044128 283.44560242 C-107.03988498 281.24887194 -107.04189113 279.05221823 -107.04296875 276.85546875 C-107.04618614 275.31618723 -107.04955057 273.77690601 -107.05305481 272.23762512 C-107.0590298 269.01575004 -107.06089641 265.79390171 -107.06030273 262.57202148 C-107.06020126 258.46341266 -107.0738456 254.35497722 -107.09107494 250.24640942 C-107.10224766 247.06776659 -107.10422032 243.88916497 -107.10369301 240.71050453 C-107.10486549 239.1967948 -107.10924572 237.68308374 -107.11702538 236.16939354 C-107.21476803 215.18610537 -107.21476803 215.18610537 -100.875 207.4375 C-94.19831045 200.97618753 -88.24654533 199.30317524 -79.05322266 199.32397461 C-77.37215927 199.32408791 -77.37215927 199.32408791 -75.65713501 199.32420349 C-74.46317108 199.32936478 -73.26920715 199.33452606 -72.0390625 199.33984375 C-70.18732925 199.34196617 -70.18732925 199.34196617 -68.29818726 199.34413147 C-64.36543325 199.34971728 -60.43273672 199.36226725 -56.5 199.375 C-53.82942792 199.38058088 -51.15885637 199.38457942 -48.48828125 199.38867188 C-41.95050131 199.39968208 -35.41275476 199.41640615 -28.875 199.4375 C-28.89312744 198.43154785 -28.91125488 197.4255957 -28.92993164 196.38916016 C-28.94459883 195.04329884 -28.95881636 193.69743258 -28.97265625 192.3515625 C-28.99078369 191.03623535 -29.00891113 189.7209082 -29.02758789 188.36572266 C-28.63538488 178.26884828 -24.33333901 169.82464402 -19.36328125 161.21484375 C-17.50868871 157.98016313 -17.50868871 157.98016313 -16.875 154.4375 C-18.358152 151.56595074 -18.358152 151.56595074 -20.5 148.5625 C-32.72111022 129.83574417 -34.64970887 105.99208601 -30.6875 84.3125 C-29.3070163 78.31476744 -27.18666566 72.75339412 -24.66796875 67.14453125 C-23.62684293 64.5315389 -23.62684293 64.5315389 -24.5546875 62.3359375 C-24.99039063 61.70945313 -25.42609375 61.08296875 -25.875 60.4375 C-26.33777344 59.76332031 -26.80054688 59.08914062 -27.27734375 58.39453125 C-27.78394531 57.68683594 -28.29054688 56.97914062 -28.8125 56.25 C-34.71466799 47.3606712 -35.93185581 39.07730683 -34.875 28.4375 C-32.59111406 18.32130464 -27.38788815 10.95048261 -19.1953125 4.76171875 C-12.92645697 1.18403857 -7.18500467 -0.0977604 0 0 Z M-4.875 314.4375 C-4.875 320.3775 -4.875 326.3175 -4.875 332.4375 C54.195 332.4375 113.265 332.4375 174.125 332.4375 C174.125 326.4975 174.125 320.5575 174.125 314.4375 C115.055 314.4375 55.985 314.4375 -4.875 314.4375 Z " fill="#0F0F0F" transform="translate(229.875,49.5625)"/>
<path d="M0 0 C1.42070305 -0.0046118 2.84140133 -0.0109666 4.26208967 -0.01890898 C8.15696236 -0.0355871 12.05144237 -0.02736304 15.94631636 -0.0149641 C20.15019157 -0.00590975 24.3539995 -0.01988519 28.55786133 -0.03088379 C36.78933646 -0.04866903 45.0206657 -0.04482915 53.25214655 -0.03323323 C59.9414908 -0.02419981 66.63079415 -0.0229745 73.32014275 -0.02732849 C74.748208 -0.02824789 74.748208 -0.02824789 76.20512305 -0.02918586 C78.13916593 -0.03046476 80.07320881 -0.03176161 82.00725167 -0.03307623 C100.14182916 -0.04448188 118.27632576 -0.03136823 136.41088998 -0.00987476 C151.97338426 0.00799908 167.53575921 0.00488972 183.09825134 -0.0135498 C201.16947009 -0.03495181 219.24061797 -0.04338628 237.31184763 -0.03110075 C239.2384713 -0.02982655 241.16509498 -0.02856906 243.09171867 -0.02732849 C244.51363579 -0.02640284 244.51363579 -0.02640284 245.96427851 -0.02545848 C252.64660359 -0.02200379 259.32888374 -0.02783644 266.01120186 -0.0372467 C274.15319693 -0.04846049 282.29503774 -0.0454396 290.43701512 -0.02412373 C294.59171514 -0.01360537 298.74615786 -0.00950479 302.90085602 -0.02272034 C306.70369008 -0.03463381 310.50602818 -0.02809942 314.3088172 -0.00681013 C316.33708469 -0.00022074 318.36538657 -0.01328946 320.39361817 -0.02703905 C331.60141329 0.06990655 331.60141329 0.06990655 336.13902283 4.50793457 C336.46902283 5.49793457 336.79902283 6.48793457 337.13902283 7.50793457 C337.79902283 7.50793457 338.45902283 7.50793457 339.13902283 7.50793457 C340.31879553 11.24618263 340.28646624 14.81836281 340.31602478 18.71984863 C340.32259598 19.43910019 340.32916718 20.15835175 340.3359375 20.8993988 C340.35560917 23.27412024 340.3673198 25.64877859 340.37730408 28.02355957 C340.3813796 28.83734825 340.38545513 29.65113693 340.38965416 30.48958588 C340.41048949 34.79762007 340.42480175 39.10562266 340.43418884 43.41369629 C340.44524372 47.84994934 340.47963997 52.28569951 340.51936054 56.72177505 C340.54557824 60.14486588 340.55388526 63.56783782 340.55747032 66.9910202 C340.56232353 68.62560164 340.57390128 70.26017822 340.59250832 71.89466095 C340.76863856 88.3926224 340.76863856 88.3926224 336.13902283 94.50793457 C329.66539941 99.53925828 323.31276207 99.06766317 315.35397339 99.00914001 C313.94152074 99.01303529 312.52907202 99.01867754 311.11663252 99.02591091 C307.24455329 99.04065112 303.37288132 99.0304931 299.50081527 99.0161742 C295.32148682 99.00506016 291.1422153 99.01700839 286.96289062 99.02601624 C278.77953526 99.03994741 270.59633422 99.03239361 262.41298621 99.01734065 C252.88391489 99.00047948 243.354882 99.00369092 233.82580037 99.00743473 C216.82462653 99.01331301 199.82352676 98.99914259 182.82237244 98.9744873 C166.32332076 98.95056285 149.82436803 98.94348456 133.32530212 98.95397949 C115.35956335 98.96538688 97.39387034 98.96732126 79.42813212 98.9528814 C77.5127424 98.95135555 75.59735269 98.94983519 73.68196297 98.94832039 C72.73954644 98.94756257 71.79712992 98.94680476 70.82615532 98.94602398 C64.18291395 98.94128007 57.53969301 98.94313333 50.89645195 98.94738579 C42.802053 98.95231067 34.70774763 98.94633595 26.61337011 98.92649149 C22.48301471 98.91661507 18.35280184 98.91151816 14.22243881 98.919384 C10.44188159 98.92643643 6.66161211 98.91964664 2.88109285 98.90178037 C0.86476048 98.89581484 -1.15159881 98.90456543 -3.16791874 98.91382688 C-4.96634477 98.90116697 -4.96634477 98.90116697 -6.80110264 98.8882513 C-7.83394463 98.88722218 -8.86678662 98.88619305 -9.93092686 98.88513273 C-14.65899343 98.27646809 -18.68874063 96.33379803 -21.67347717 92.57043457 C-25.05485339 87.83650787 -24.99301855 84.25176969 -25.03797913 78.47961426 C-25.04455032 77.77986984 -25.05112152 77.08012543 -25.05789185 76.35917664 C-25.07755973 74.04938639 -25.08927335 71.739661 -25.09925842 69.42980957 C-25.10537171 68.24222424 -25.10537171 68.24222424 -25.11160851 67.03064728 C-25.13244234 62.83932255 -25.14675517 58.64803029 -25.15614319 54.45666504 C-25.16719712 50.14147389 -25.20159261 45.82679987 -25.24131489 41.51179123 C-25.26753777 38.18134646 -25.27584006 34.85102384 -25.27942467 31.52048492 C-25.28427663 29.9305599 -25.2958508 28.34063983 -25.31446266 26.75081635 C-25.49673165 10.14849907 -25.49673165 10.14849907 -20.86097717 4.50793457 C-14.3779789 -0.54226265 -7.97394081 -0.05414793 0 0 Z " fill="#375B83" transform="translate(155.86097717285156,390.4920654296875)"/>
<path d="M0 0 C1.36185751 -0.0128794 2.72370965 -0.0263378 4.08555603 -0.04034424 C6.92736644 -0.06417643 9.76869255 -0.0717172 12.6105957 -0.06933594 C16.23852646 -0.0689285 19.8633417 -0.12367182 23.49053288 -0.19242477 C26.29864062 -0.23705057 29.10600088 -0.24500892 31.9144268 -0.24289703 C33.89705016 -0.24985798 35.87944014 -0.29310237 37.86158752 -0.33709717 C46.69696372 -0.24760053 46.69696372 -0.24760053 50.22695923 2.44511414 C51.96324247 4.44089953 53.41404528 6.49038259 54.90234375 8.671875 C57.49466172 10.68563931 57.49466172 10.68563931 60.15234375 11.984375 C60.9825 12.43425781 61.81265625 12.88414062 62.66796875 13.34765625 C74.12721944 18.03930599 84.64581794 18.00913931 96.83984375 17.796875 C99.50661665 17.76170029 102.17334157 17.73095745 104.84022522 17.70553589 C106.48860942 17.68867451 108.1369454 17.66562946 109.78514099 17.63552856 C113.36560879 17.5886289 116.4534157 17.79116664 119.90234375 18.671875 C122.68838586 18.8437138 125.42772658 18.94824124 128.21484375 18.984375 C129.31602539 19.02788086 129.31602539 19.02788086 130.43945312 19.07226562 C136.09822917 19.13753988 139.16118123 17.71847753 143.90234375 14.671875 C144.56234375 14.671875 145.22234375 14.671875 145.90234375 14.671875 C147.95583008 10.12486955 148.88622392 5.53473417 149.90234375 0.671875 C153.86234375 0.671875 157.82234375 0.671875 161.90234375 0.671875 C162.12921875 2.21875 162.35609375 3.765625 162.58984375 5.359375 C163.57738531 10.21478768 164.798267 12.66221872 168.90234375 15.671875 C175.58093435 19.88229082 183.2567769 19.12520393 190.90234375 18.671875 C191.4651001 18.50179932 192.02785645 18.33172363 192.60766602 18.15649414 C196.07336803 17.42456324 199.52143458 17.63282449 203.04296875 17.71484375 C204.68878944 17.73727583 206.33462374 17.75872631 207.98046875 17.77929688 C210.54726059 17.81597227 213.11333461 17.85845931 215.6796875 17.91870117 C231.96601637 18.28234873 247.36664595 17.44052835 259.90234375 5.671875 C260.48618835 4.81662735 261.07003296 3.9613797 261.67156982 3.08021545 C263.90234375 0.671875 263.90234375 0.671875 266.64532471 0.04368591 C267.69597107 0.04272415 268.74661743 0.04176239 269.82910156 0.04077148 C271.62181488 0.02197182 271.62181488 0.02197182 273.45074463 0.00279236 C274.73930359 0.01605057 276.02786255 0.02930878 277.35546875 0.04296875 C278.6982238 0.0421394 280.04097874 0.0396775 281.38372803 0.03565979 C284.19834963 0.03280256 287.01217523 0.04748535 289.82666016 0.07495117 C293.4156642 0.10890436 297.00323314 0.10306004 300.59230423 0.0842886 C303.36698113 0.0736585 306.14133089 0.08271243 308.91597748 0.09767342 C310.87669052 0.10530802 312.83744354 0.09803366 314.79815674 0.09043884 C321.95867394 0.18432935 326.84757615 0.7404244 332.90234375 4.671875 C337.3071861 9.41555138 338.05492384 12.47508827 338.0793457 18.7644043 C338.0859169 19.49472366 338.0924881 20.22504303 338.09925842 20.97749329 C338.11900687 23.40036113 338.13065937 25.82316684 338.140625 28.24609375 C338.14470053 29.07399729 338.14877605 29.90190083 338.15297508 30.75489235 C338.1738456 35.13957089 338.18814124 39.52421806 338.19750977 43.90893555 C338.2085571 48.43053703 338.24293446 52.95164405 338.28268147 57.4730711 C338.30887787 60.95531607 338.31720442 64.43744399 338.32079124 67.91977882 C338.32565192 69.58588806 338.33725115 71.25199225 338.35582924 72.91800499 C338.38027882 75.25652066 338.37924533 77.59376767 338.37231445 79.93237305 C338.39152954 80.95589371 338.39152954 80.95589371 338.41113281 82.00009155 C338.35558043 87.16992718 337.17697507 90.7612192 333.90234375 94.671875 C326.78579243 99.38011988 320.32021285 99.23924845 311.95907593 99.1865387 C310.54163378 99.19186872 309.12419728 99.19893703 307.70677149 99.20758575 C303.82556793 99.22617916 299.9447468 99.21991972 296.06352758 99.20943272 C291.87261494 99.20243148 287.68178014 99.21844545 283.4908905 99.23143005 C275.2869649 99.25305814 267.08317808 99.25294651 258.87923335 99.24480451 C252.21231814 99.23850273 245.54544338 99.23964317 238.87852859 99.24607658 C237.92939595 99.24697824 236.9802633 99.24787989 236.00236905 99.24880887 C234.0742047 99.25066008 232.14604036 99.25252264 230.21787603 99.25439643 C212.14290954 99.27097006 194.06802115 99.26225866 175.99305935 99.24541085 C159.4529451 99.23070691 142.91301239 99.24535284 126.37292151 99.27418102 C109.38853305 99.30356321 92.40422842 99.31455121 75.41981566 99.30499882 C73.49938625 99.30397626 71.57895682 99.30298165 69.65852737 99.3020153 C68.2411989 99.30130072 68.2411989 99.30130072 66.79523753 99.3005717 C60.13492724 99.29840641 53.47469624 99.30821746 46.81440353 99.32278633 C38.69985809 99.34028884 30.58554431 99.34022196 22.47100805 99.31743468 C18.33042237 99.30627475 14.19024516 99.30316939 10.0496769 99.32173538 C6.25974418 99.33851075 2.47057714 99.33223015 -1.3193057 99.30751859 C-3.34057539 99.30030595 -5.36188653 99.3176917 -7.3830868 99.33592993 C-17.18595537 99.23460705 -17.18595537 99.23460705 -20.89855003 96.27714443 C-22.88569987 93.9229786 -23.87269131 92.70890163 -24.09765625 89.671875 C-24.75765625 89.671875 -25.41765625 89.671875 -26.09765625 89.671875 C-26.19041684 79.47525694 -26.26145204 69.27873959 -26.30490494 59.0817852 C-26.3257623 54.34668935 -26.35404604 49.6118826 -26.39941406 44.87695312 C-26.44293798 40.30577892 -26.46680729 35.73488245 -26.47716522 31.163517 C-26.48454486 29.42121128 -26.49895572 27.67892043 -26.52057648 25.93673325 C-26.54969815 23.4924839 -26.5536087 21.04937593 -26.55175781 18.60498047 C-26.56613892 17.88784378 -26.58052002 17.17070709 -26.59533691 16.43183899 C-26.55408945 11.38367119 -25.28634397 8.54416032 -22.09765625 4.671875 C-15.99398064 -0.66119083 -7.6194836 0.02623243 0 0 Z " fill="#375B83" transform="translate(158.09765625,257.328125)"/>
<path d="M0 0 C28.14330163 -0.75806873 57.7028329 8.85681708 78.8828125 27.5625 C80.47514391 29.07390965 82.05848958 30.59484125 83.6328125 32.125 C84.89738281 33.27935547 84.89738281 33.27935547 86.1875 34.45703125 C102.53769708 49.8381437 109.89671747 70.78110365 110.6328125 92.8515625 C110.87124327 111.69610887 105.19246448 130.02977567 92.09375 143.78125 C65.84877773 168.77646169 25.25187948 169.94196932 -8.86035156 169.22558594 C-36.2566673 168.43978239 -66.69633776 163.45484949 -87.48828125 144.15625 C-89.2657363 142.22440576 -90.82802227 140.25106915 -92.3671875 138.125 C-92.96015625 137.32707031 -93.553125 136.52914062 -94.1640625 135.70703125 C-105.61330889 119.14476671 -107.5974133 98.29911534 -105.05078125 78.68847656 C-104.22728427 74.35312475 -102.8996472 70.2551045 -101.3671875 66.125 C-100.82384766 64.56652344 -100.82384766 64.56652344 -100.26953125 62.9765625 C-91.82610301 40.70880939 -72.53865527 22.41712828 -51.3671875 12.125 C-34.67804313 4.85607681 -18.16896951 0.95941753 0 0 Z " fill="#F7F7F7" transform="translate(311.3671875,59.875)"/>
<path d="M0 0 C1.37861302 0.00747345 2.75723676 0.01316116 4.13586426 0.01715088 C7.73968565 0.03232081 11.34284772 0.07152532 14.94641113 0.1159668 C18.63345423 0.15710819 22.32060533 0.17520186 26.0078125 0.1953125 C33.22425679 0.23803029 40.44016052 0.30617366 47.65625 0.390625 C47.65625 0.720625 47.65625 1.050625 47.65625 1.390625 C28.84625 1.390625 10.03625 1.390625 -9.34375 1.390625 C-9.31111732 13.86355114 -9.31111732 13.86355114 -9.23242188 26.3359375 C-9.19009358 31.42518663 -9.15308952 36.51407488 -9.14819336 41.60351562 C-9.14390575 45.70817714 -9.11540583 49.81203006 -9.07031822 53.91643906 C-9.0573578 55.48002279 -9.05303042 57.04370336 -9.05759621 58.60733414 C-9.06251316 60.80306874 -9.03636833 62.99644985 -9.00317383 65.19189453 C-8.99651199 66.43987823 -8.98985016 67.68786194 -8.98298645 68.97366333 C-8.12668212 73.5509353 -6.64469893 75.13075129 -3.34375 78.390625 C-0.0642305 80.47515205 2.54571159 80.6437311 6.39587784 80.65233803 C7.57426295 80.65980352 8.75264805 80.66726901 9.9667418 80.67496073 C11.91030269 80.67205863 11.91030269 80.67205863 13.89312744 80.6690979 C15.2825159 80.67409976 16.67190145 80.67997523 18.06128287 80.68665063 C21.88318914 80.70247798 25.70502195 80.70588281 29.52695704 80.70729923 C33.64691933 80.71098852 37.7668411 80.72614162 41.88677979 80.73991394 C49.02618232 80.76220544 56.16557048 80.77720735 63.30500031 80.78728104 C73.62745699 80.80185645 83.94986359 80.82739007 94.27229092 80.85561232 C111.01907913 80.90110101 127.76587455 80.93770723 144.51269531 80.96875 C160.78223943 80.99892704 177.05176592 81.03327342 193.32128906 81.07324219 C194.82515849 81.07693451 194.82515849 81.07693451 196.35940912 81.08070143 C201.3889747 81.09307586 206.41854007 81.10553243 211.44810534 81.11802983 C253.18413274 81.22162873 294.92017231 81.3091894 336.65625 81.390625 C336.65625 58.290625 336.65625 35.190625 336.65625 11.390625 C336.98625 11.390625 337.31625 11.390625 337.65625 11.390625 C337.74907946 21.17881751 337.82008059 30.96690467 337.86349869 40.75544834 C337.88434112 45.30107272 337.91259729 49.8463951 337.95800781 54.3918457 C338.00158541 58.78147777 338.02541225 63.17082003 338.03575897 67.56065178 C338.04312903 69.23235572 338.05752112 70.90404446 338.07917023 72.57562447 C338.10836368 74.92388862 338.11219952 77.27096728 338.11035156 79.61938477 C338.12473267 80.30487396 338.13911377 80.99036316 338.15393066 81.69662476 C338.11002073 86.88004778 336.94104756 90.47161969 333.65625 94.390625 C326.53947524 99.09866004 320.07425474 98.95799931 311.71298218 98.9052887 C310.29554003 98.91061872 308.87810353 98.91768703 307.46067774 98.92633575 C303.57947418 98.94492916 299.69865305 98.93866972 295.81743383 98.92818272 C291.62652119 98.92118148 287.43568639 98.93719545 283.24479675 98.95018005 C275.04087115 98.97180814 266.83708433 98.97169651 258.6331396 98.96355451 C251.96622439 98.95725273 245.29934963 98.95839317 238.63243484 98.96482658 C237.6833022 98.96572824 236.73416955 98.96662989 235.7562753 98.96755887 C233.82811095 98.96941008 231.89994661 98.97127264 229.97178228 98.97314643 C211.89681579 98.98972006 193.8219274 98.98100866 175.7469656 98.96416085 C159.20685135 98.94945691 142.66691864 98.96410284 126.12682776 98.99293102 C109.1424393 99.02231321 92.15813467 99.03330121 75.17372191 99.02374882 C73.2532925 99.02272626 71.33286307 99.02173165 69.41243362 99.0207653 C67.99510515 99.02005072 67.99510515 99.02005072 66.54914378 99.0193217 C59.88883349 99.01715641 53.22860249 99.02696746 46.56830978 99.04153633 C38.45376434 99.05903884 30.33945056 99.05897196 22.2249143 99.03618468 C18.08432862 99.02502475 13.94415141 99.02191939 9.80358315 99.04048538 C6.01365043 99.05726075 2.22448339 99.05098015 -1.56539945 99.02626859 C-3.58666914 99.01905595 -5.60798028 99.0364417 -7.62918055 99.05467993 C-17.43204912 98.95335705 -17.43204912 98.95335705 -21.14464378 95.99589443 C-23.13179362 93.6417286 -24.11878506 92.42765163 -24.34375 89.390625 C-25.00375 89.390625 -25.66375 89.390625 -26.34375 89.390625 C-26.43651059 79.19400694 -26.50754579 68.99748959 -26.55099869 58.8005352 C-26.57185605 54.06543935 -26.60013979 49.3306326 -26.64550781 44.59570312 C-26.68903173 40.02452892 -26.71290104 35.45363245 -26.72325897 30.882267 C-26.73063861 29.13996128 -26.74504947 27.39767043 -26.76667023 25.65548325 C-26.7957919 23.2112339 -26.79970245 20.76812593 -26.79785156 18.32373047 C-26.81223267 17.60659378 -26.82661377 16.88945709 -26.84143066 16.15058899 C-26.80018019 11.10205255 -25.53080869 8.26424304 -22.34375 4.390625 C-16.17203144 -1.06769722 -7.70446289 -0.12096864 0 0 Z " fill="#264469" transform="translate(158.34375,257.609375)"/>
<path d="M0 0 C0 25.08 0 50.16 0 76 C0.66 76 1.32 76 2 76 C2.45375 76.763125 2.9075 77.52625 3.375 78.3125 C5.66704327 82.10318695 7.8306147 83.6102049 12 85 C13.88589706 85.09673667 15.77506195 85.13378569 17.66343212 85.1386652 C18.85027637 85.14413964 20.03712061 85.14961409 21.25992984 85.15525442 C23.22536926 85.15672158 23.22536926 85.15672158 25.23051453 85.15821838 C26.63141246 85.16278281 28.03230903 85.16778266 29.433204 85.17318195 C33.29155649 85.18678602 37.14990016 85.19418797 41.00827038 85.20060861 C45.16573126 85.2086026 49.3231737 85.22230382 53.48062134 85.23532104 C60.68661104 85.25709802 67.89260259 85.27523804 75.09860802 85.29092598 C85.51735405 85.31361349 95.93607968 85.34175787 106.35480843 85.37124526 C123.25744467 85.41893489 140.16008924 85.46219536 157.06274414 85.50268555 C173.48462574 85.5420335 189.90649993 85.58345804 206.32836914 85.62768555 C207.34017247 85.63040982 208.3519758 85.63313409 209.39443984 85.63594092 C214.47022818 85.64962028 219.54601642 85.66334058 224.62180459 85.67708123 C266.7478543 85.79106755 308.87391998 85.89787213 351 86 C350.2592182 90.85985422 348.75806717 92.76631429 345 96 C341.67763602 98.0780534 339.07115 98.25121706 335.18342781 98.25447559 C333.39004988 98.26322388 333.39004988 98.26322388 331.56044209 98.27214891 C330.24548186 98.26836958 328.93052162 98.26459026 327.57571411 98.26069641 C326.16585426 98.26371618 324.75599605 98.26760478 323.34614074 98.27228898 C319.46739545 98.28260038 315.58874227 98.28037919 311.70998931 98.27610838 C307.52857314 98.27364683 303.34717948 98.28264823 299.16577148 98.29014587 C290.9720242 98.30291103 282.77830965 98.30468429 274.58455409 98.30234561 C267.92565762 98.30056424 261.2667711 98.3023082 254.60787582 98.30657005 C253.66097658 98.30716524 252.71407733 98.30776043 251.73848417 98.30837366 C249.81499069 98.30958538 247.89149721 98.31079951 245.96800373 98.31201603 C227.91930576 98.32289866 209.87062645 98.32072572 191.82192741 98.31463119 C175.30423646 98.30946193 158.78660449 98.32071642 142.2689252 98.33972941 C125.31631797 98.3590937 108.36373866 98.36736625 91.4111203 98.36360615 C81.89043543 98.3616919 72.36980077 98.36420344 62.84912491 98.37832069 C54.74368556 98.39021757 46.6383273 98.39165849 38.53288688 98.37953053 C34.39646876 98.37362978 30.26019909 98.37257529 26.12379074 98.38453293 C22.33757575 98.39535111 18.55163386 98.39233715 14.76543187 98.37827124 C12.74596408 98.37435317 10.72648434 98.38520457 8.70704472 98.39656812 C7.50624394 98.38936158 6.30544316 98.38215503 5.06825447 98.37473011 C4.03378626 98.37478513 2.99931805 98.37484014 1.93350232 98.37489682 C-2.79706104 97.77033852 -6.82664263 95.82727668 -9.8125 92.0625 C-13.19387621 87.3285733 -13.13204138 83.74383512 -13.17700195 77.97167969 C-13.18357315 77.27193527 -13.19014435 76.57219086 -13.19691467 75.85124207 C-13.21658255 73.54145182 -13.22829618 71.23172643 -13.23828125 68.921875 C-13.24439454 67.73428967 -13.24439454 67.73428967 -13.25063133 66.52271271 C-13.27146516 62.33138798 -13.285778 58.14009572 -13.29516602 53.94873047 C-13.30621995 49.63353932 -13.34061544 45.3188653 -13.38033772 41.00385666 C-13.4065606 37.67341189 -13.41486289 34.34308927 -13.41844749 31.01255035 C-13.42329946 29.42262533 -13.43487363 27.83270526 -13.45348549 26.24288177 C-13.62570029 10.55636934 -13.62570029 10.55636934 -9 4 C-6.27867421 1.88570816 -3.55824865 0 0 0 Z " fill="#254268" transform="translate(144,391)"/>
<path d="M0 0 C10.56 0 21.12 0 32 0 C32 19.47 32 38.94 32 59 C51.8 59.495 51.8 59.495 72 60 C72 62.64 72 65.28 72 68 C38.67 68 5.34 68 -29 68 C-29 65.36 -29 62.72 -29 60 C-20.09 59.67 -11.18 59.34 -2 59 C-0.70033415 56.4006683 -0.83955838 54.45135797 -0.79467773 51.54052734 C-0.77473251 50.39949554 -0.75478729 49.25846375 -0.73423767 48.08285522 C-0.71752518 46.84637238 -0.70081268 45.60988953 -0.68359375 44.3359375 C-0.66281265 43.07359283 -0.64203156 41.81124817 -0.62062073 40.51065063 C-0.56622074 37.15367955 -0.51599764 33.79669811 -0.46777344 30.43963623 C-0.41754958 27.01438945 -0.36192096 23.58923079 -0.30664062 20.1640625 C-0.19856168 13.44277569 -0.09952984 6.72144067 0 0 Z " fill="#323232" transform="translate(298,496)"/>
<path d="M0 0 C1.03447266 0.67095703 1.03447266 0.67095703 2.08984375 1.35546875 C7.95121112 5.12636216 13.85634788 8.70821602 20 12 C19.67 12.66 19.34 13.32 19 14 C18.01 14.33 17.02 14.66 16 15 C16.33 16.65 16.66 18.3 17 20 C17.68964844 19.855625 18.37929687 19.71125 19.08984375 19.5625 C33.0193059 16.8110013 46.7268777 17.7013922 59.0625 25.375 C60.73153319 26.55108036 62.38002915 27.75720829 64 29 C64.67675781 29.50789063 65.35351562 30.01578125 66.05078125 30.5390625 C71.3763146 34.80405066 76.18673887 40.29093383 78 47 C77.71119413 48.34368153 77.38343594 49.68020238 77 51 C74.72923158 51.02699725 72.45837179 51.04639453 70.1875 51.0625 C68.29064453 51.07990234 68.29064453 51.07990234 66.35546875 51.09765625 C63 51 63 51 60 50 C57.09414215 49.95029575 54.21281663 49.95670538 51.30859375 50.0078125 C49.54102154 50.02534673 47.77344302 50.04225325 46.00585938 50.05859375 C43.23020756 50.08938816 40.4548759 50.12470776 37.67944336 50.17138672 C22.87291046 50.40723127 9.4613564 50.03914577 -1.92578125 39.16015625 C-7.9192772 32.39422884 -7.5274381 25.79691404 -7 17 C-5.83958882 10.66893311 -3.41388026 5.41512041 0 0 Z " fill="#323232" transform="translate(223,212)"/>
<path d="M0 0 C1.9921875 0.125 1.9921875 0.125 4 1 C9.07045087 8.42340519 11.5803431 20.17418559 10 29 C8.38527782 32.62074206 6.52035674 35.93117185 4 39 C3.34 39 2.68 39 2 39 C2 39.66 2 40.32 2 41 C0.59266179 41.78773577 -0.82675411 42.55388309 -2.25 43.3125 C-3.03890625 43.74175781 -3.8278125 44.17101562 -4.640625 44.61328125 C-15.88162166 49.2534601 -26.5023054 49.3532064 -38.4375 49.125 C-40.87327341 49.08975841 -43.30899195 49.05901654 -45.74488831 49.03366089 C-47.24752904 49.0168736 -48.75011801 48.99389381 -50.25254822 48.96365356 C-53.99236508 48.91011276 -57.35871022 49.16604014 -61 50 C-63.26995419 50.06652855 -65.54168695 50.08543751 -67.8125 50.0625 C-68.97394531 50.05347656 -70.13539063 50.04445313 -71.33203125 50.03515625 C-72.21246094 50.02355469 -73.09289062 50.01195312 -74 50 C-74.33919933 43.62305264 -73.27042463 39.64736336 -69 34.8125 C-58.06467738 23.80807582 -46.36044818 17.19976365 -30.5625 16.75 C-25.28240687 16.86355039 -20.15558142 17.92070071 -15 19 C-14.67 17.35 -14.34 15.7 -14 14 C-15.32 13.01 -16.64 12.02 -18 11 C-16.86820312 10.37351563 -15.73640625 9.74703125 -14.5703125 9.1015625 C-13.08844357 8.27621778 -11.60667809 7.45068728 -10.125 6.625 C-9.00544922 6.00625 -9.00544922 6.00625 -7.86328125 5.375 C-7.14785156 4.97539062 -6.43242187 4.57578125 -5.6953125 4.1640625 C-4.7055542 3.61419678 -4.7055542 3.61419678 -3.69580078 3.05322266 C-1.83480572 1.98654727 -1.83480572 1.98654727 0 0 Z " fill="#323232" transform="translate(402,213)"/>
<path d="M0 0 C7.56861692 6.02400122 7.56861692 6.02400122 8.33300781 11.30712891 C8.51579448 13.52252369 8.59474859 15.71485519 8.625 17.9375 C8.63974365 18.66155029 8.6544873 19.38560059 8.66967773 20.1315918 C8.49835499 29.16450637 2.90014283 35.90081171 -2.9375 42.4375 C-9.4659392 48.29890302 -16.23530879 50.09006644 -24.95703125 49.94921875 C-29.92828201 49.09570125 -32.9282996 46.36758824 -35.9375 42.4375 C-39.82868594 35.88582879 -39.8955645 29.8803151 -38.9375 22.4375 C-35.90348174 13.05760471 -30.17118283 6.12486745 -22.1875 0.5 C-15.7242405 -2.55209476 -6.46416873 -3.33175216 0 0 Z " fill="#060606" transform="translate(275.9375,131.5625)"/>
<path d="M0 0 C7.683337 0.11489102 15.16950937 4.78982261 20.5625 10 C27.82529189 18.056058 29.24740892 27.04219448 28.94921875 37.6015625 C28.32976493 42.89115944 26.59208076 46.07329477 22.5 49.4375 C16.82237369 53.52577392 11.26154133 53.28068508 4.5 52.4375 C-4.2406064 49.48459243 -10.41125208 42.80460507 -14.9375 35 C-18.35348832 27.73759052 -18.79513775 20.32606629 -17.5 12.4375 C-14.6343464 7.32889812 -11.12199377 3.00703063 -5.625 0.625 C-3.74576262 0.45918494 -1.87197049 0.23399631 0 0 Z " fill="#050505" transform="translate(361.5,128.5625)"/>
<path d="M0 0 C4.52255537 3.43485218 8.8135575 8.04458264 10.8515625 13.40625 C11.70455896 20.45167269 12.14871274 27.44775992 8.1640625 33.59375 C3.0851944 39.90385885 -2.51727727 43.66318752 -10.60546875 44.73046875 C-16.63055395 44.99886732 -21.26525781 44.02304492 -26.1484375 40.40625 C-32.14978186 34.85078865 -36.14084638 28.93646564 -36.6484375 20.59375 C-36.40522794 13.93588823 -33.98946549 8.22977679 -29.24609375 3.515625 C-20.87137461 -3.10699359 -9.65569571 -5.56295226 0 0 Z " fill="#060709" transform="translate(459.1484375,286.59375)"/>
<path d="M0 0 C5.04429353 4.47226024 7.56924692 8.93439898 8.28515625 15.69140625 C8.65504807 23.11769592 7.61543082 29.0264654 3 35 C-3.76884952 40.82049933 -9.72144654 42.50292493 -18.5703125 42.39453125 C-24.08985911 41.7595948 -27.9279602 39.74127845 -32 36 C-37.25998917 29.0761367 -39.93799638 22.70405468 -39 14 C-37.08540651 6.35456247 -32.36082676 1.43199003 -26 -3 C-16.66457587 -7.00089606 -8.28239219 -5.59659099 0 0 Z " fill="#070809" transform="translate(462,421)"/>
<path d="M0 0 C3.96 0 7.92 0 12 0 C12 2.64 12 5.28 12 8 C45.33 8 78.66 8 113 8 C113 11.63 113 15.26 113 19 C75.71 19 38.42 19 0 19 C0 12.73 0 6.46 0 0 Z " fill="#222222" transform="translate(257,556)"/>
<path d="M0 0 C3.72647041 1.2421568 4.23870238 2.83476134 5.95703125 6.21875 C6.30121094 6.9303125 6.64539063 7.641875 7 8.375 C7.35449219 9.09945312 7.70898438 9.82390625 8.07421875 10.5703125 C12.55401962 19.96290614 16.0282041 29.60994822 13.0625 40 C10.12908478 47.02912703 2.97565982 52.20801254 -3.86030579 55.18519592 C-10.4749125 57.7040645 -17.03310955 58.28247529 -24.05078125 58.16015625 C-24.87200974 58.15495468 -25.69323822 58.14975311 -26.53935242 58.14439392 C-29.13059271 58.12676895 -31.72141512 58.09560441 -34.3125 58.0625 C-36.9213945 58.03480473 -39.53023183 58.01012495 -42.13920593 57.99131775 C-43.7541768 57.97913632 -45.36911871 57.96160803 -46.98396301 57.93800354 C-50.52156951 57.90641668 -53.59368646 58.10776617 -57 59 C-69.63491319 59.91506335 -69.63491319 59.91506335 -75 56 C-75.495 54.515 -75.495 54.515 -76 53 C-76.66 53 -77.32 53 -78 53 C-77.67 50.03 -77.34 47.06 -77 44 C-76.07461831 47.70152678 -75.91825838 48.63458162 -77 52 C-76.11828125 51.855625 -75.2365625 51.71125 -74.328125 51.5625 C-66.27909971 50.40510353 -58.33757803 49.9221888 -50.2109375 49.97265625 C-49.03809204 49.97971085 -49.03809204 49.97971085 -47.84155273 49.98690796 C-43.87557309 50.01826137 -39.9114538 50.07662178 -35.94628906 50.16210938 C-23.82249115 50.36092251 -13.81702148 48.80914116 -3 43 C-2.34 43 -1.68 43 -1 43 C-1 42.34 -1 41.68 -1 41 C-0.401875 40.4225 0.19625 39.845 0.8125 39.25 C4.62619202 35.32734535 6.18558073 31.74538899 6.375 26.3125 C6.15002418 19.19897888 4.17896795 12.4836775 1.3125 6 C0 3 0 3 0 0 Z " fill="#222222" transform="translate(405,211)"/>
<path d="M0 0 C0.66 0 1.32 0 2 0 C0.95983868 3.28050876 -0.17882508 6.40772118 -1.5625 9.5625 C-4.69089151 17.04343622 -5.52692417 26.3785849 -3.38671875 34.2578125 C0.49544945 41.88533239 9.25234949 46.28762684 17 49 C21.70767855 50.23939002 26.30417208 50.11021716 31.1328125 50.0625 C32.44329056 50.05682007 32.44329056 50.05682007 33.78024292 50.05102539 C36.56187953 50.03884281 39.34341082 50.02020874 42.125 50 C45.79426799 49.97344317 49.46348476 49.95343867 53.1328125 49.9375 C54.39848557 49.92505249 54.39848557 49.92505249 55.68972778 49.91235352 C59.05145823 49.89819795 61.78743093 49.92914364 65 51 C67.39254576 51.22560676 69.78928123 51.40848595 72.1875 51.5625 C73.45980469 51.64628906 74.73210937 51.73007812 76.04296875 51.81640625 C77.01878906 51.87699219 77.99460937 51.93757813 79 52 C77.76489151 54.74216746 77.11010185 55.91887232 74.625 57.75 C69.00135573 59.68918768 62.65405326 59.86447045 56.83081055 58.48681641 C53.14125178 57.85232049 49.53200963 57.93529573 45.8046875 58.0078125 C44.18490227 58.02534439 42.56511017 58.04225115 40.9453125 58.05859375 C38.41777074 58.08936977 35.89058203 58.12471223 33.36328125 58.17138672 C19.75026018 58.40913375 7.85142959 57.49784321 -4 50 C-8 45.9047619 -8 45.9047619 -8 43 C-8.66 43 -9.32 43 -10 43 C-13.99739076 34.08274369 -13.17900294 26.04178087 -9.8828125 16.90234375 C-7.59932426 11.74676627 -4.89949374 6.83248957 -2 2 C-1.34 2 -0.68 2 0 2 C0 1.34 0 0.68 0 0 Z " fill="#212121" transform="translate(221,211)"/>
<path d="M0 0 C3.54862773 3.05347037 6.27009781 5.70021889 7.03515625 10.48828125 C7.22784807 15.47313478 6.55296217 19.10982215 3.6875 23.3125 C-1.11000896 27.90142161 -4.49207358 30.35799075 -11.1875 30.25 C-16.9974729 29.30546754 -20.85688252 26.33158231 -24.25 21.625 C-26.13799083 15.73891095 -26.42034138 10.52818277 -23.625 4.9375 C-16.76900262 -2.84498351 -9.45277323 -4.81556372 0 0 Z " fill="#F9F9FA" transform="translate(456.3125,293.6875)"/>
<path d="M0 0 C3.64589582 3.69516468 6.13682998 6.86693875 6.375 12.125 C6.29746001 17.4752596 4.54133742 21.03835233 1 25 C-2.29338204 27.83774423 -5.71733248 29.23019239 -10.0625 29.4375 C-15.66536071 28.81495992 -19.13041988 27.22913202 -22.8125 23 C-26.50893774 17.93059968 -26.69319001 13.09627378 -26 7 C-23.70271181 2.48746963 -21.0297408 -0.80974469 -16.25 -2.6875 C-9.95650618 -3.56159636 -5.39492453 -3.59661636 0 0 Z " fill="#FAFAFA" transform="translate(457,427)"/>
<path d="M0 0 C1.22589844 -0.00515625 2.45179688 -0.0103125 3.71484375 -0.015625 C6.79991052 0.22916443 8.48596294 0.62271344 11.0625 2.25 C11.375 5.0625 11.375 5.0625 11.0625 8.25 C10.2375 8.683125 9.4125 9.11625 8.5625 9.5625 C7.7375 10.119375 6.9125 10.67625 6.0625 11.25 C5.59997231 14.28635826 5.77483163 17.20071529 6.0625 20.25 C8.0425 20.58 10.0225 20.91 12.0625 21.25 C13.3825 18.61 14.7025 15.97 16.0625 13.25 C17.72861905 13.207279 19.39632885 13.20936168 21.0625 13.25 C22.0625 14.25 22.0625 14.25 22.4375 17.9375 C22.40195166 21.23757044 21.8867568 23.04808588 19.8125 25.625 C16.13630597 29.1340943 14.63856772 30.13742373 9.5625 30.5 C6.23262825 30.26215202 4.92296203 29.68023101 2.0625 28.25 C-0.59241264 28.56606103 -2.54955246 29.05602623 -4.9375 30.25 C-9.91472669 30.62563975 -13.05107767 30.50619168 -16.9375 27.25 C-19.24215168 24.19972572 -20.8002366 21.27947552 -21.3125 17.4375 C-20.9375 15.25 -20.9375 15.25 -18.9375 13.25 C-16.5 13.25 -16.5 13.25 -13.9375 14.25 C-12.9375 16.25 -11.9375 18.25 -10.9375 20.25 C-8.45499828 21.39768913 -8.45499828 21.39768913 -5.9375 21.25 C-3.64174397 18.95424397 -3.61410401 18.24157475 -3.3125 15.125 C-3.18875 13.84625 -3.065 12.5675 -2.9375 11.25 C-3.72125 10.96125 -4.505 10.6725 -5.3125 10.375 C-7.9375 9.25 -7.9375 9.25 -9.9375 7.25 C-10.25 4.75 -10.25 4.75 -9.9375 2.25 C-6.26994001 -0.19503999 -4.36271863 -0.01831152 0 0 Z " fill="#0E0E0E" transform="translate(312.9375,166.75)"/>
<path d="M0 0 C59.73 0 119.46 0 181 0 C181 0.33 181 0.66 181 1 C121.93 1 62.86 1 2 1 C2 6.94 2 12.88 2 19 C61.07 19 120.14 19 181 19 C181 19.66 181 20.32 181 21 C121.27 21 61.54 21 0 21 C0 14.07 0 7.14 0 0 Z " fill="#6E6E6E" transform="translate(223,363)"/>
<path d="M0 0 C0.65042267 -0.00335861 1.30084534 -0.00671722 1.97097778 -0.01017761 C4.13114304 -0.01971301 6.291231 -0.02163202 8.45141602 -0.02270508 C9.94735242 -0.0259159 11.44328851 -0.02927984 12.93922424 -0.03279114 C16.07911914 -0.03878892 19.21898649 -0.04063038 22.35888672 -0.04003906 C26.38873909 -0.03993741 30.41841537 -0.05358965 34.44822598 -0.07081127 C37.53909624 -0.08191236 40.62992368 -0.08395886 43.72081184 -0.08342934 C45.20681426 -0.08461231 46.69281769 -0.08905179 48.17880058 -0.0967617 C50.25474362 -0.10652359 52.33030119 -0.10369891 54.40625 -0.09765625 C55.58904037 -0.09908127 56.77183075 -0.10050629 57.99046326 -0.10197449 C60.76782227 0.14526367 60.76782227 0.14526367 62.76782227 2.14526367 C62.21226671 6.70081923 62.21226671 6.70081923 60.76782227 8.14526367 C58.69250487 8.24996448 56.61359054 8.28382621 54.53564453 8.29052734 C53.88522186 8.29388596 53.23479919 8.29724457 52.56466675 8.30070496 C50.40450149 8.31024036 48.24441353 8.31215936 46.08422852 8.31323242 C44.58829211 8.31644325 43.09235602 8.31980718 41.59642029 8.32331848 C38.45652539 8.32931626 35.31665804 8.33115772 32.17675781 8.33056641 C28.14690545 8.33046476 24.11722916 8.34411699 20.08741856 8.36133862 C16.99654829 8.37243971 13.90572085 8.3744862 10.81483269 8.37395668 C9.32883027 8.37513966 7.84282684 8.37957913 6.35684395 8.38728905 C4.28090091 8.39705093 2.20534334 8.39422625 0.12939453 8.38818359 C-1.64479103 8.39032112 -1.64479103 8.39032112 -3.45481873 8.39250183 C-6.23217773 8.14526367 -6.23217773 8.14526367 -8.23217773 6.14526367 C-7.45798192 -0.20314201 -6.12844568 0.01976354 0 0 Z " fill="#010203" transform="translate(165.232177734375,448.854736328125)"/>
<path d="M0 0 C0.65042267 -0.00335861 1.30084534 -0.00671722 1.97097778 -0.01017761 C4.13114304 -0.01971301 6.291231 -0.02163202 8.45141602 -0.02270508 C9.94735242 -0.0259159 11.44328851 -0.02927984 12.93922424 -0.03279114 C16.07911914 -0.03878892 19.21898649 -0.04063038 22.35888672 -0.04003906 C26.38873909 -0.03993741 30.41841537 -0.05358965 34.44822598 -0.07081127 C37.53909624 -0.08191236 40.62992368 -0.08395886 43.72081184 -0.08342934 C45.20681426 -0.08461231 46.69281769 -0.08905179 48.17880058 -0.0967617 C50.25474362 -0.10652359 52.33030119 -0.10369891 54.40625 -0.09765625 C55.58904037 -0.09908127 56.77183075 -0.10050629 57.99046326 -0.10197449 C60.76782227 0.14526367 60.76782227 0.14526367 62.76782227 2.14526367 C62.21226671 6.70081923 62.21226671 6.70081923 60.76782227 8.14526367 C58.69250487 8.24996448 56.61359054 8.28382621 54.53564453 8.29052734 C53.88522186 8.29388596 53.23479919 8.29724457 52.56466675 8.30070496 C50.40450149 8.31024036 48.24441353 8.31215936 46.08422852 8.31323242 C44.58829211 8.31644325 43.09235602 8.31980718 41.59642029 8.32331848 C38.45652539 8.32931626 35.31665804 8.33115772 32.17675781 8.33056641 C28.14690545 8.33046476 24.11722916 8.34411699 20.08741856 8.36133862 C16.99654829 8.37243971 13.90572085 8.3744862 10.81483269 8.37395668 C9.32883027 8.37513966 7.84282684 8.37957913 6.35684395 8.38728905 C4.28090091 8.39705093 2.20534334 8.39422625 0.12939453 8.38818359 C-1.64479103 8.39032112 -1.64479103 8.39032112 -3.45481873 8.39250183 C-6.23217773 8.14526367 -6.23217773 8.14526367 -8.23217773 6.14526367 C-7.45798192 -0.20314201 -6.12844568 0.01976354 0 0 Z " fill="#030507" transform="translate(165.232177734375,316.854736328125)"/>
<path d="M0 0 C0.65042267 -0.00335861 1.30084534 -0.00671722 1.97097778 -0.01017761 C4.13114304 -0.01971301 6.291231 -0.02163202 8.45141602 -0.02270508 C9.94735242 -0.0259159 11.44328851 -0.02927984 12.93922424 -0.03279114 C16.07911914 -0.03878892 19.21898649 -0.04063038 22.35888672 -0.04003906 C26.38873909 -0.03993741 30.41841537 -0.05358965 34.44822598 -0.07081127 C37.53909624 -0.08191236 40.62992368 -0.08395886 43.72081184 -0.08342934 C45.20681426 -0.08461231 46.69281769 -0.08905179 48.17880058 -0.0967617 C50.25474362 -0.10652359 52.33030119 -0.10369891 54.40625 -0.09765625 C55.58904037 -0.09908127 56.77183075 -0.10050629 57.99046326 -0.10197449 C60.76782227 0.14526367 60.76782227 0.14526367 62.76782227 2.14526367 C62.21226671 6.70081923 62.21226671 6.70081923 60.76782227 8.14526367 C58.69250487 8.24996448 56.61359054 8.28382621 54.53564453 8.29052734 C53.88522186 8.29388596 53.23479919 8.29724457 52.56466675 8.30070496 C50.40450149 8.31024036 48.24441353 8.31215936 46.08422852 8.31323242 C44.58829211 8.31644325 43.09235602 8.31980718 41.59642029 8.32331848 C38.45652539 8.32931626 35.31665804 8.33115772 32.17675781 8.33056641 C28.14690545 8.33046476 24.11722916 8.34411699 20.08741856 8.36133862 C16.99654829 8.37243971 13.90572085 8.3744862 10.81483269 8.37395668 C9.32883027 8.37513966 7.84282684 8.37957913 6.35684395 8.38728905 C4.28090091 8.39705093 2.20534334 8.39422625 0.12939453 8.38818359 C-1.64479103 8.39032112 -1.64479103 8.39032112 -3.45481873 8.39250183 C-6.23217773 8.14526367 -6.23217773 8.14526367 -8.23217773 6.14526367 C-7.45798192 -0.20314201 -6.12844568 0.01976354 0 0 Z " fill="#010203" transform="translate(165.232177734375,289.854736328125)"/>
<path d="M0 0 C8.97920777 -0.02312566 17.95840537 -0.04091623 26.93763638 -0.05181217 C31.10662828 -0.05704051 35.27559987 -0.06413726 39.44458008 -0.07543945 C43.46457686 -0.08627008 47.48455405 -0.09227721 51.50456429 -0.09487724 C53.04162975 -0.09673118 54.57869409 -0.10035119 56.11575127 -0.10573006 C58.26135487 -0.11294284 60.40687655 -0.11399084 62.55249023 -0.11352539 C63.77604721 -0.115746 64.99960419 -0.11796661 66.26023865 -0.12025452 C69 0 69 0 70 1 C70.125 3.5 70.125 3.5 70 6 C68.15398688 7.84601312 65.14694509 7.13741323 62.67602539 7.14526367 C61.68576103 7.15030159 61.68576103 7.15030159 60.67549133 7.15544128 C58.48286075 7.16497695 56.29030631 7.1668957 54.09765625 7.16796875 C52.5792996 7.17117955 51.06094327 7.17454349 49.54258728 7.17805481 C46.35561404 7.18405265 43.16866794 7.18589404 39.98168945 7.18530273 C35.891304 7.18520108 31.80109203 7.19885343 27.71074772 7.21607494 C24.57355444 7.22717571 21.43640334 7.22922254 18.29919243 7.22869301 C16.7908614 7.22987603 15.28252939 7.23431575 13.77421761 7.24202538 C11.66714341 7.25178662 9.56044902 7.24896282 7.45336914 7.24291992 C6.25281387 7.24434494 5.05225861 7.24576996 3.81532288 7.24723816 C1 7 1 7 -1 5 C-0.625 2.375 -0.625 2.375 0 0 Z " fill="#010102" transform="translate(158,423)"/>
<path d="M0 0 C14.52 0 29.04 0 44 0 C42.35 1.65 40.7 3.3 39 5 C38.38640625 5.95519531 37.7728125 6.91039062 37.140625 7.89453125 C32.44452733 15.14243405 32.44452733 15.14243405 28.07226562 16.67626953 C23.02235302 17.68043418 17.88992483 17.73377926 13 16 C9.87525407 13.47791313 7.9305857 11.06470194 5.76171875 7.69921875 C4.04128653 5.06325718 2.5145706 3.80405175 0 2 C0 1.34 0 0.68 0 0 Z " fill="#F6F6F6" transform="translate(292,235)"/>
<path d="M0 0 C0.78938965 0.00829834 1.5787793 0.01659668 2.39208984 0.02514648 C12.06415295 0.30470313 18.45669982 3.11389109 25.3359375 9.94921875 C27.45021296 11.70803742 28.36899873 12.28385533 31.125 12.4375 C33.69523009 11.62693432 36.12733338 10.7424085 38.625 9.75 C68.92662438 -1.37087468 101.8245886 -0.52454791 132.05859375 10.38671875 C136.01429011 11.81076358 136.01429011 11.81076358 140.125 12.4375 C142.3395047 10.94516779 142.3395047 10.94516779 144.3125 8.75 C152.32663343 1.27276113 159.81182874 -0.17901197 170.51147461 -0.02905273 C180.83816769 0.39361418 187.41573064 3.79339828 194.921875 10.921875 C203.02096246 20.16976919 203.79583928 30.49838083 203.31738281 42.25439453 C202.92729895 46.68095531 201.5921175 50.74094937 199.125 54.4375 C198.135 55.0975 197.145 55.7575 196.125 56.4375 C198.125 50.4375 198.125 50.4375 198.92578125 48.52734375 C202.16209874 40.32151503 202.89125453 30.66525763 199.375 22.4375 C198.65613234 21.08712707 197.90847041 19.75144516 197.125 18.4375 C196.5475 17.385625 195.97 16.33375 195.375 15.25 C189.86776515 8.36595644 182.6885877 4.38426706 174.125 2.4375 C165.59516146 1.49508266 157.53661062 1.78850943 150.125 6.4375 C147.44074048 8.76306992 144.91122511 11.14735852 142.44921875 13.70703125 C140.125 15.4375 140.125 15.4375 137.7890625 15.37890625 C135.10569924 14.43067964 132.44717362 13.43545264 129.80883789 12.36791992 C98.77477332 -0.15273301 65.16369862 2.51052126 34.3347168 13.72900391 C31.95233565 14.49286095 29.58461899 14.98941207 27.125 15.4375 C26.25875 14.138125 26.25875 14.138125 25.375 12.8125 C20.93248155 7.42258569 12.97214102 3.63946361 6.125 2.4375 C-6.81596593 1.45079879 -15.06474092 4.11182 -24.875 12.4375 C-25.865 13.0975 -26.855 13.7575 -27.875 14.4375 C-26.43404948 10.98680271 -24.68719759 9.16232983 -21.75 6.875 C-21.02554688 6.29621094 -20.30109375 5.71742187 -19.5546875 5.12109375 C-13.2585593 1.16536306 -7.378719 -0.10039611 0 0 Z " fill="#D4D4D4" transform="translate(229.875,49.5625)"/>
<path d="M0 0 C1 3 1 3 -0.07421875 5.7421875 C-0.60660156 6.77601563 -1.13898438 7.80984375 -1.6875 8.875 C-2.20699219 9.90367187 -2.72648437 10.93234375 -3.26171875 11.9921875 C-4.95237291 14.91758908 -6.81966277 17.42539699 -9 20 C-7.6518867 23.63920741 -5.96161885 26.99962469 -4.13085938 30.41796875 C1.31663567 40.71542739 4.9116745 51.14823145 4 63 C3.505 63.99 3.505 63.99 3 65 C4.02571106 64.99333817 4.02571106 64.99333817 5.07214355 64.98654175 C12.21018375 64.94218264 19.34818457 64.91208133 26.48632812 64.89013672 C29.14786548 64.88123255 31.80918615 64.86646743 34.47070312 64.84912109 C38.30341302 64.82477279 42.13597668 64.81349379 45.96875 64.8046875 C47.15239136 64.79436493 48.33603271 64.78404236 49.55554199 64.77340698 C59.28547162 64.77209529 67.33755578 65.4323814 74.6328125 72.60546875 C79.96606666 78.44113091 81.30812305 83.87477129 81.22705078 91.74951172 C81.22734283 92.50141281 81.22763489 93.2533139 81.22793579 94.02799988 C81.22655052 96.49534945 81.21102748 98.96239115 81.1953125 101.4296875 C81.19157951 103.14746943 81.18873389 104.8652535 81.18673706 106.58303833 C81.17912311 111.09084006 81.15949395 115.59851167 81.1373291 120.10626221 C81.11682235 124.71144857 81.10772503 129.31665608 81.09765625 133.921875 C81.07624586 142.94797365 81.04213705 151.97397598 81 161 C80.67 161 80.34 161 80 161 C79.99453156 159.60177757 79.99453156 159.60177757 79.98895264 158.17530823 C79.95190771 149.36293567 79.89403191 140.5509095 79.81609726 131.738801 C79.77669654 127.20907264 79.74447193 122.67953653 79.72900391 118.1496582 C79.71378827 113.77275969 79.67925655 109.39638996 79.63169098 105.01972771 C79.61692754 103.35535228 79.60896189 101.69090134 79.60811615 100.02646065 C79.84062478 86.29914852 79.84062478 86.29914852 73.6239624 74.47120667 C68.58305626 69.94400743 63.45483261 67.63749826 56.71923828 67.56762695 C54.88801926 67.53793571 54.88801926 67.53793571 53.01980591 67.50764465 C51.71647308 67.50125473 50.41314026 67.49486481 49.0703125 67.48828125 C47.71123649 67.47141945 46.35217593 67.4532672 44.99313354 67.43388367 C41.43238149 67.38653976 37.8716921 67.35663009 34.31072998 67.33044434 C30.67056913 67.30055946 27.03062388 67.25405658 23.390625 67.20898438 C16.26054039 67.1231294 9.13038911 67.05570542 2 67 C1.94739014 65.84604736 1.89478027 64.69209473 1.84057617 63.50317383 C1.76256209 61.96694156 1.68417304 60.43072831 1.60546875 58.89453125 C1.57191284 58.13660278 1.53835693 57.37867432 1.50378418 56.59777832 C0.95064578 46.18922985 -2.93245774 37.64268183 -7.73046875 28.49609375 C-9 26 -9 26 -10 23 C-10.66 23 -11.32 23 -12 23 C-11.37923266 19.70402104 -10.19348804 17.58987247 -8.25 14.875 C-4.98943287 10.14166463 -2.44906784 5.19072343 0 0 Z " fill="#DFDFDF" transform="translate(424,184)"/>
<path d="M0 0 C2.5 2.0625 2.5 2.0625 3.5 4.0625 C2.63117188 4.01609375 1.76234375 3.9696875 0.8671875 3.921875 C-6.30239349 3.64270519 -6.30239349 3.64270519 -13.0625 5.6875 C-16.98868631 9.51301487 -19.71838432 12.56147363 -19.8125 18.1875 C-19.58611588 20.99466306 -19.38394193 23.41067421 -18.5 26.0625 C-21.39573124 25.06397198 -22.47265909 24.10155844 -24.25 21.5625 C-25.90166887 16.93782715 -26.21221309 12.92137598 -25.5 8.0625 C-23.29464531 3.65179061 -20.57769265 0.81494254 -16.5 -1.9375 C-11.00077155 -3.74015165 -4.88088355 -3.15960578 0 0 Z " fill="#CDCECE" transform="translate(456.5,293.9375)"/>
<path d="M0 0 C0.33 0 0.66 0 1 0 C1 5.94 1 11.88 1 18 C3.19454834 17.97905273 5.38909668 17.95810547 7.65014648 17.93652344 C14.92631708 17.87004442 22.20250159 17.82598148 29.47889614 17.79275131 C33.88770642 17.77193631 38.29620376 17.74373106 42.70483398 17.69824219 C46.96479909 17.6545657 51.22446445 17.63081717 55.48463631 17.62049103 C57.10444922 17.61313856 58.72424698 17.59878133 60.3439312 17.57707977 C78.86448647 17.33895048 78.86448647 17.33895048 85.83177185 23.66253662 C91.58084134 29.57639795 93.46043489 36.77489773 93.38818359 44.84960938 C93.39344055 45.58895218 93.39869751 46.32829498 93.40411377 47.09004211 C93.41720295 49.50816648 93.40861566 51.92562018 93.3984375 54.34375 C93.40046143 56.03951136 93.40337552 57.73527187 93.40713501 59.43103027 C93.41154335 62.97477555 93.40517558 66.51829305 93.39111328 70.06201172 C93.37402221 74.58778772 93.38387142 79.11302986 93.40183067 83.63878632 C93.41270895 87.13738982 93.40920369 90.63586828 93.4014473 94.13447571 C93.39945645 95.80251632 93.40186505 97.47056856 93.40888596 99.13859558 C93.41656752 101.47616335 93.40480399 103.8128853 93.38818359 106.15039062 C93.39425629 106.82906693 93.40032898 107.50774323 93.40658569 108.20698547 C93.30109766 116.27901806 90.38228645 122.18131195 85 128 C84.34 127.67 83.68 127.34 83 127 C84.20442708 125.69791667 85.40885417 124.39583333 86.61328125 123.09375 C92.09829149 114.81215708 91.44027816 105.86668074 91.3984375 96.34765625 C91.40046184 94.72155121 91.40337627 93.09544705 91.40713501 91.46934509 C91.41154268 88.07102769 91.40517865 84.67294785 91.39111328 81.2746582 C91.37403589 76.93954292 91.38386311 72.60498556 91.40183067 68.26989079 C91.41272251 64.91450371 91.40919731 61.55924672 91.4014473 58.20385551 C91.39945947 56.60641856 91.40185422 55.00896942 91.40888596 53.41154671 C91.71340286 39.36316766 91.71340286 39.36316766 85.5625 27.125 C84.716875 26.42375 83.87125 25.7225 83 25 C82.360625 24.443125 81.72125 23.88625 81.0625 23.3125 C76.15978351 20.19258951 71.32478183 19.74039566 65.61767578 19.68115234 C64.90478897 19.67110672 64.19190216 19.6610611 63.45741272 19.65071106 C61.12005358 19.62001988 58.78280823 19.60288354 56.4453125 19.5859375 C54.81720002 19.56721449 53.18909712 19.54764024 51.56100464 19.5272522 C47.29005601 19.47604455 43.01907597 19.43635822 38.74798584 19.39910889 C34.38399556 19.35899775 30.02013471 19.30793792 25.65625 19.2578125 C17.10424879 19.16118782 8.55219363 19.07775296 0 19 C0 12.73 0 6.46 0 0 Z " fill="#D4D4D4" transform="translate(412,364)"/>
<path d="M0 0 C0.99 1.485 0.99 1.485 2 3 C1.07058594 2.93039062 0.14117187 2.86078125 -0.81640625 2.7890625 C-9.09279435 2.2075315 -9.09279435 2.2075315 -16.3125 5.625 C-19.09725941 8.64825265 -20 10.81403939 -20 15 C-19.76079744 18.67964783 -19.42363713 22.33716823 -19 26 C-22.75492603 23.33202624 -24.91585412 21.53370094 -26 17 C-26.55327048 11.91842344 -26.59981758 8.1782131 -24.25 3.5625 C-17.65459648 -3.94893179 -8.63682196 -5.55224269 0 0 Z " fill="#CECECE" transform="translate(457,427)"/>
<path d="M0 0 C1 3 1 3 -0.07421875 5.7421875 C-0.60660156 6.77601563 -1.13898438 7.80984375 -1.6875 8.875 C-2.20699219 9.90367187 -2.72648437 10.93234375 -3.26171875 11.9921875 C-4.95237291 14.91758908 -6.81966277 17.42539699 -9 20 C-7.6518867 23.63920741 -5.96161885 26.99962469 -4.13085938 30.41796875 C1.32098124 40.72364187 4.89494256 51.14201105 4 63 C3.67 63.99 3.34 64.98 3 66 C21.15 66 39.3 66 58 66 C58 66.33 58 66.66 58 67 C39.52 67 21.04 67 2 67 C1.67 61.39 1.34 55.78 1 50 C-1.06498173 42.27543871 -4.02352775 35.56274331 -7.73046875 28.49609375 C-9 26 -9 26 -10 23 C-10.66 23 -11.32 23 -12 23 C-11.37923266 19.70402104 -10.19348804 17.58987247 -8.25 14.875 C-4.98943287 10.14166463 -2.44906784 5.19072343 0 0 Z " fill="#B7B7B7" transform="translate(424,184)"/>
<path d="M0 0 C0.66 0.33 1.32 0.66 2 1 C2.02707139 3.24993359 2.04642829 5.49996095 2.0625 7.75 C2.07410156 9.00296875 2.08570313 10.2559375 2.09765625 11.546875 C2.02021027 14.28536501 1.82780815 16.41880293 1 19 C0.34 19 -0.32 19 -1 19 C-1.18369141 19.88751953 -1.18369141 19.88751953 -1.37109375 20.79296875 C-3.64729479 28.78087923 -11.43962203 34.91751477 -18.3125 38.9375 C-23.19562758 40.34450286 -27.94851364 40.64504884 -33 40 C-33.66 39.34 -34.32 38.68 -35 38 C-34.31035156 37.97421875 -33.62070313 37.9484375 -32.91015625 37.921875 C-23.67859529 37.36468888 -15.43537146 35.06362672 -9 28 C-3.61104789 21.03787554 -0.94107447 16.15394689 -0.4375 7.3125 C-0.37272461 6.2596582 -0.37272461 6.2596582 -0.30664062 5.18554688 C-0.2008264 3.45724794 -0.09993419 1.7286489 0 0 Z " fill="#CECECE" transform="translate(284,143)"/>
<path d="M0 0 C4.07395078 0.39172604 5.56600957 1.23380509 8.25 4.3125 C8.625 8 8.625 8 8.25 11.3125 C7.92 11.6425 7.59 11.9725 7.25 12.3125 C3.08567262 12.15535557 0.92012052 11.93107279 -2.1875 9.0625 C-3.86001719 6.11886975 -4.21113292 4.63265702 -3.75 1.3125 C-2.75 0.3125 -2.75 0.3125 0 0 Z " fill="#E1E1E1" transform="translate(356.75,150.6875)"/>
<path d="M0 0 C2.26295719 1.6814403 3.7856953 3.05965844 4.42675781 5.87255859 C4.61355245 8.15844492 4.65661511 10.39411619 4.625 12.6875 C4.61734619 13.49388916 4.60969238 14.30027832 4.60180664 15.13110352 C4.39005546 20.80936361 3.51366997 24.96932591 -0.23828125 29.4296875 C-5.27044286 33.91511758 -10.22498542 34.32488217 -16.66796875 34.203125 C-18.88014906 34.01043928 -20.86817577 33.60769242 -23 33 C-22.67 32.34 -22.34 31.68 -22 31 C-20.69675781 31.06960937 -20.69675781 31.06960937 -19.3671875 31.140625 C-12.19760651 31.41979481 -12.19760651 31.41979481 -5.4375 29.375 C-1.52228934 25.56017936 0.82186055 22.6359412 1.42578125 17.08984375 C1.40872076 15.70531929 1.37062643 14.32090896 1.3125 12.9375 C1.30283203 12.24333984 1.29316406 11.54917969 1.28320312 10.83398438 C1.20209964 7.1208553 0.86604651 3.61204764 0 0 Z " fill="#D1D1D1" transform="translate(388,149)"/>
<path d="M0 0 C1 1 1 1 1.375 3.75 C1 7 1 7 -1.1875 9.9375 C-4 12 -4 12 -6.75 11.875 C-9 11 -9 11 -10 10 C-10.39588785 6.43700935 -10.42667508 4.62360205 -8.375 1.625 C-5.37639795 -0.42667508 -3.56299065 -0.39588785 0 0 Z " fill="#ECECEC" transform="translate(273,151)"/>
<path d="M0 0 C7.01365267 -0.91482426 11.48213295 1.81194755 17 6 C24.25669261 12.5347575 28.69054575 19.44826534 29.375 29.28515625 C29.70154337 37.51594475 29.74729188 45.8870008 25 53 C24.01 53.66 23.02 54.32 22 55 C24 49 24 49 24.80078125 47.08984375 C28.03709874 38.88401503 28.76625453 29.22775763 25.25 21 C24.53113234 19.64962707 23.78347041 18.31394516 23 17 C22.13375 15.4221875 22.13375 15.4221875 21.25 13.8125 C15.54753833 6.68442291 8.56845114 3.67764098 0 1 C0 0.67 0 0.34 0 0 Z " fill="#CACACA" transform="translate(404,51)"/>
<path d="M0 0 C1.18802719 0.00222061 2.37605438 0.00444122 3.6000824 0.00672913 C4.58053528 0.00651009 4.58053528 0.00651009 5.58079529 0.00628662 C7.75058766 0.00698569 9.92029517 0.01477774 12.09007263 0.02259827 C13.59079949 0.02446247 15.09152696 0.02588636 16.59225464 0.02688599 C20.54934865 0.03071099 24.50640616 0.04054112 28.46348572 0.05158997 C32.49851488 0.06180446 36.53354991 0.06638369 40.56858826 0.07142639 C48.49113108 0.08216341 56.41364419 0.09923962 64.33616638 0.12025452 C64.33616638 0.45025452 64.33616638 0.78025452 64.33616638 1.12025452 C63.12800262 1.12572296 63.12800262 1.12572296 61.89543152 1.13130188 C54.30287608 1.169177 46.71081159 1.22602339 39.11857224 1.30415726 C35.21533787 1.34365798 31.31232997 1.37583341 27.40892029 1.39125061 C23.64148228 1.40640059 19.87466675 1.44081524 16.1075058 1.48856354 C14.67066612 1.50339472 13.23373757 1.51129653 11.79682159 1.51213837 C9.78346391 1.51450415 7.7701927 1.54384517 5.75706482 1.57435608 C4.61122925 1.58323853 3.46539368 1.59212097 2.28483582 1.60127258 C-1.24973119 2.22337569 -2.43494893 3.3794403 -4.66383362 6.12025452 C-3.59445102 0.16226575 -3.59445102 0.16226575 0 0 Z " fill="#0C131C" transform="translate(161.66383361816406,448.87974548339844)"/>
<path d="M0 0 C1.18802719 0.00222061 2.37605438 0.00444122 3.6000824 0.00672913 C4.58053528 0.00651009 4.58053528 0.00651009 5.58079529 0.00628662 C7.75058766 0.00698569 9.92029517 0.01477774 12.09007263 0.02259827 C13.59079949 0.02446247 15.09152696 0.02588636 16.59225464 0.02688599 C20.54934865 0.03071099 24.50640616 0.04054112 28.46348572 0.05158997 C32.49851488 0.06180446 36.53354991 0.06638369 40.56858826 0.07142639 C48.49113108 0.08216341 56.41364419 0.09923962 64.33616638 0.12025452 C64.33616638 0.45025452 64.33616638 0.78025452 64.33616638 1.12025452 C63.12800262 1.12572296 63.12800262 1.12572296 61.89543152 1.13130188 C54.30287608 1.169177 46.71081159 1.22602339 39.11857224 1.30415726 C35.21533787 1.34365798 31.31232997 1.37583341 27.40892029 1.39125061 C23.64148228 1.40640059 19.87466675 1.44081524 16.1075058 1.48856354 C14.67066612 1.50339472 13.23373757 1.51129653 11.79682159 1.51213837 C9.78346391 1.51450415 7.7701927 1.54384517 5.75706482 1.57435608 C4.61122925 1.58323853 3.46539368 1.59212097 2.28483582 1.60127258 C-1.24973119 2.22337569 -2.43494893 3.3794403 -4.66383362 6.12025452 C-3.59445102 0.16226575 -3.59445102 0.16226575 0 0 Z " fill="#0C131C" transform="translate(161.66383361816406,289.87974548339844)"/>
<path d="M0 0 C1.36046982 0.01119971 2.72096394 0.01973624 4.08146667 0.02572632 C7.6511899 0.04856528 11.21943319 0.10744074 14.78857422 0.1739502 C18.43501771 0.23548241 22.0817019 0.26276434 25.72851562 0.29296875 C32.8756031 0.35719259 40.02168898 0.4595088 47.16796875 0.5859375 C47.16796875 0.9159375 47.16796875 1.2459375 47.16796875 1.5859375 C46.0758886 1.58807503 46.0758886 1.58807503 44.96174622 1.59025574 C38.09058331 1.60810709 31.21993036 1.64978362 24.34909534 1.71802807 C20.81687288 1.75227666 17.28508189 1.77740454 13.75268555 1.78149414 C9.68877037 1.78660282 5.62614614 1.83172926 1.5625 1.87890625 C0.29775345 1.8749736 -0.9669931 1.87104095 -2.27006531 1.86698914 C-9.33893102 1.72329995 -9.33893102 1.72329995 -15.16918945 5.13012695 C-15.71792725 5.94054443 -16.26666504 6.75096191 -16.83203125 7.5859375 C-17.49203125 7.2559375 -18.15203125 6.9259375 -18.83203125 6.5859375 C-14.46173353 -1.33265837 -8.32740632 -0.19708207 0 0 Z " fill="#324559" transform="translate(435.83203125,257.4140625)"/>
<path d="M0 0 C0.66 0.33 1.32 0.66 2 1 C-3.61 6.61 -9.22 12.22 -15 18 C-15.66 17.67 -16.32 17.34 -17 17 C-11.83794309 10.72690435 -6.12627407 5.3250511 0 0 Z " fill="#BABABA" transform="translate(242,83)"/>
<path d="M0 0 C0.66 0.33 1.32 0.66 2 1 C0.04761147 3.00612399 -1.91137822 5.00492433 -3.875 7 C-4.43058594 7.57234375 -4.98617187 8.1446875 -5.55859375 8.734375 C-7.00134404 10.19450782 -8.4974374 11.60149298 -10 13 C-10.66 13 -11.32 13 -12 13 C-10.62171838 8.47701835 -8.61078298 6.51328456 -4.875 3.6875 C-3.96492187 2.99011719 -3.05484375 2.29273438 -2.1171875 1.57421875 C-1.41851562 1.05472656 -0.71984375 0.53523438 0 0 Z " fill="#3B3B3B" transform="translate(211,56)"/>
<path d="M0 0 C2.80844958 2.27771895 3.91735478 3.36197888 4.390625 7.015625 C4.34421875 8.08296875 4.2978125 9.1503125 4.25 10.25 C4.21390625 11.32765625 4.1778125 12.4053125 4.140625 13.515625 C4.09421875 14.33546875 4.0478125 15.1553125 4 16 C3.34 16.33 2.68 16.66 2 17 C1.93941406 16.19175781 1.87882812 15.38351563 1.81640625 14.55078125 C1.73261719 13.48214844 1.64882813 12.41351563 1.5625 11.3125 C1.48128906 10.25675781 1.40007812 9.20101562 1.31640625 8.11328125 C1.03548319 5.34913703 0.59843148 2.71054259 0 0 Z " fill="#989898" transform="translate(388,149)"/>
<path d="M0 0 C0.75 1.5625 0.75 1.5625 1 4 C-0.36068323 7.22897886 -1.76639367 10.38319684 -5 12 C-4.42365861 7.24518354 -2.44931479 4.02951788 0 0 Z " fill="#C9C9C9" transform="translate(283,158)"/>
<path d="M0 0 C0.33 0.66 0.66 1.32 1 2 C-2.63 1.67 -6.26 1.34 -10 1 C-10 0.34 -10 -0.32 -10 -1 C-5.96934293 -1.91605842 -3.484385 -2.45197463 0 0 Z " fill="#DEDFDF" transform="translate(458,428)"/>
<path d="M0 0 C0.66 0.33 1.32 0.66 2 1 C-0.97 3.97 -3.94 6.94 -7 10 C-7 7 -7 7 -4.625 4.4375 C-3.75875 3.633125 -2.8925 2.82875 -2 2 C-1.34 1.34 -0.68 0.68 0 0 Z " fill="#0B121A" transform="translate(434,287)"/>
<path d="M0 0 C0.33 0 0.66 0 1 0 C1.25 2.75 1.25 2.75 1 6 C-1 8.375 -1 8.375 -3 10 C-3.33 9.34 -3.66 8.68 -4 8 C-3.22265625 6.0546875 -3.22265625 6.0546875 -2.0625 3.875 C-1.49208984 2.78832031 -1.49208984 2.78832031 -0.91015625 1.6796875 C-0.60980469 1.12539062 -0.30945313 0.57109375 0 0 Z " fill="#BBBBBB" transform="translate(391,165)"/>
<path d="M0 0 C0.66 0.33 1.32 0.66 2 1 C0.88121617 2.17262904 -0.24523051 3.33795138 -1.375 4.5 C-2.00148437 5.1496875 -2.62796875 5.799375 -3.2734375 6.46875 C-5 8 -5 8 -7 8 C-5.50902342 4.2047869 -3.24299151 2.38957269 0 0 Z " fill="#252525" transform="translate(135,386)"/>
<path d="M0 0 C0.66 0.33 1.32 0.66 2 1 C0.88121617 2.17262904 -0.24523051 3.33795138 -1.375 4.5 C-2.00148438 5.1496875 -2.62796875 5.799375 -3.2734375 6.46875 C-5 8 -5 8 -7 8 C-5.50902342 4.2047869 -3.24299151 2.38957269 0 0 Z " fill="#B2B3B4" transform="translate(440,292)"/>
<path d="M0 0 C0.99 0.33 1.98 0.66 3 1 C2.0479279 2.00596297 1.08812654 3.00461563 0.125 4 C-0.40867187 4.556875 -0.94234375 5.11375 -1.4921875 5.6875 C-3 7 -3 7 -5 7 C-3.70700306 4.11562221 -2.34058637 2.12780579 0 0 Z " fill="#212121" transform="translate(351,132)"/>
<path d="M0 0 C0.66 0 1.32 0 2 0 C4 3 4 3 3.625 5.6875 C3.41875 6.450625 3.2125 7.21375 3 8 C2.01 8.33 1.02 8.66 0 9 C0.185625 8.071875 0.37125 7.14375 0.5625 6.1875 C1.24123881 2.98656229 1.24123881 2.98656229 0 0 Z " fill="#979797" transform="translate(212,201)"/>
<path d="M0 0 C0.66 0 1.32 0 2 0 C1.91621094 0.62648437 1.83242188 1.25296875 1.74609375 1.8984375 C1.59333984 3.12433594 1.59333984 3.12433594 1.4375 4.375 C1.33308594 5.18710938 1.22867187 5.99921875 1.12109375 6.8359375 C0.81762672 9.04899186 0.81762672 9.04899186 2 11 C1.01 10.67 0.02 10.34 -1 10 C-1.02689216 8.52093108 -1.04634621 7.04172517 -1.0625 5.5625 C-1.07410156 4.73878906 -1.08570313 3.91507813 -1.09765625 3.06640625 C-1 1 -1 1 0 0 Z " fill="#C8C8C8" transform="translate(319,177)"/>
</svg>
